<svg width="101" height="101" viewBox="0 0 101 101" fill="none" xmlns="http://www.w3.org/2000/svg">
<rect width="101" height="101" rx="29" fill="url(#paint0_linear_0_1)"/>
<path fill-rule="evenodd" clip-rule="evenodd" d="M18 47C18 31.536 30.536 19 46 19H60C75.464 19 88 31.536 88 47C88 62.464 75.464 75 60 75H46C41.9996 75 38.1952 74.1611 34.753 72.6496C32.8434 71.8111 30.5935 71.9252 28.9649 73.228L22.8741 78.1007C20.9098 79.6722 18 78.2736 18 75.7581V47ZM30.5 55C32.9853 55 35 52.9853 35 50.5C35 49.3291 34.5528 48.2626 33.8199 47.4621L37.1304 44.4826C37.9548 45.4133 39.1589 46 40.5 46C42.4103 46 44.0425 44.8097 44.6956 43.1304L53.6801 49.1201C53.2491 49.8105 53 50.6261 53 51.5C53 53.9853 55.0147 56 57.5 56C59.9853 56 62 53.9853 62 51.5C62 50.8461 61.8605 50.2249 61.6098 49.6643L70.6429 43.8193C71.4304 45.126 72.8631 46 74.5 46C76.9853 46 79 43.9853 79 41.5C79 39.0147 76.9853 37 74.5 37C72.0147 37 70 39.0147 70 41.5C70 41.9889 70.078 42.4597 70.2222 42.9004L61.1018 48.8019C60.2809 47.7078 58.9731 47 57.5 47C56.2496 47 55.1183 47.51 54.3028 48.3333L44.9597 42.1046C44.9863 41.9069 45 41.705 45 41.5C45 39.0147 42.9853 37 40.5 37C38.0147 37 36 39.0147 36 41.5C36 42.2823 36.1996 43.018 36.5508 43.659L33.0613 46.7995C32.3343 46.2954 31.4516 46 30.5 46C28.0147 46 26 48.0147 26 50.5C26 52.9853 28.0147 55 30.5 55Z" fill="white"/>
<defs>
<linearGradient id="paint0_linear_0_1" x1="-4.82869" y1="58.6264" x2="101.012" y2="59.0449" gradientUnits="userSpaceOnUse">
<stop stop-color="#4EBE96"/>
<stop offset="1" stop-color="#A4DA5E"/>
</linearGradient>
</defs>
</svg>
